<svg xmlns="http://www.w3.org/2000/svg" viewBox="0 0 504.8 473.58"><defs><style>.cls-1{fill:#fff;}</style></defs><g id="Layer_2" data-name="Layer 2"><g id="Layer_3" data-name="Layer 3"><path class="cls-1" d="M290.36,272.91a36.68,36.68,0,0,1-18.47,31.78,3.9,3.9,0,0,0-2,3.45v85.45H237.71V308.14a4,4,0,0,0-2-3.45,36.56,36.56,0,1,1,54.65-31.78Z"/><path class="cls-1" d="M386.52,245.43V393.59H277.81V310.38a44.47,44.47,0,1,0-48.05,0v83.21H121.07V245.43c0-73.19,59.56-132.7,132.71-132.7S386.52,172.24,386.52,245.43Z"/><path class="cls-1" d="M427.87,401.51l18.86,72.07H60.87l18.86-72.07Z"/><path class="cls-1" d="M497.87,246.88h-48.8a6.94,6.94,0,1,0,0,13.87h48.8a6.94,6.94,0,0,0,0-13.87Z"/><path class="cls-1" d="M472.37,132.68a6.93,6.93,0,0,0-10.16-7.79L420,149.31a6.93,6.93,0,0,0-2.53,9.46,6.95,6.95,0,0,0,9.46,2.53l42.27-24.42a6.8,6.8,0,0,0,3.22-4.2Z"/><path class="cls-1" d="M379.82,34.51A7,7,0,0,0,370.35,37L345.94,79.3a6.95,6.95,0,0,0,2.53,9.47,6.95,6.95,0,0,0,9.46-2.53L382.35,44a7,7,0,0,0-2.53-9.46Z"/><path class="cls-1" d="M253.78,0a7,7,0,0,0-6.93,6.93V55.74a6.94,6.94,0,0,0,13.87,0V6.93A6.94,6.94,0,0,0,253.78,0Z"/><path class="cls-1" d="M136.88,35.66a6.93,6.93,0,0,0-9.46-2.53,6.91,6.91,0,0,0-2.53,9.46l24.42,42.27a6.95,6.95,0,0,0,9.46,2.53A6.79,6.79,0,0,0,162,83.18a6.88,6.88,0,0,0-.69-5.26Z"/><path class="cls-1" d="M86.27,146.87,44,122.45a6.93,6.93,0,0,0-6.94,12l42.27,24.42a6.95,6.95,0,0,0,9.46-2.53,7,7,0,0,0-2.53-9.47Z"/><path class="cls-1" d="M55.74,244.09H6.93a6.94,6.94,0,0,0,0,13.87H55.74a6.94,6.94,0,0,0,0-13.87Z"/></g></g></svg>