<svg xmlns="http://www.w3.org/2000/svg" viewBox="0 0 507.38 351.53"><defs><style>.cls-1{fill:#fff;}</style></defs><g id="Layer_2" data-name="Layer 2"><g id="Layer_1-2" data-name="Layer 1"><circle class="cls-1" cx="253.69" cy="175.76" r="17.97"/><path class="cls-1" d="M253.69,107.12a68.65,68.65,0,1,1-68.64,68.64A68.72,68.72,0,0,1,253.69,107.12Zm25.93,68.64a25.93,25.93,0,1,0-25.93,25.93A26,26,0,0,0,279.62,175.76Z"/><path class="cls-1" d="M476.06,175.76l-42.58,42.58c-99.16,99.17-260.46,99.17-359.62,0L31.31,175.76l42.58-42.57C173.06,34,334.35,34,433.52,133.19Zm-145.77,0a76.58,76.58,0,1,0-22.43,54.18A76.14,76.14,0,0,0,330.29,175.76Z"/><path class="cls-1" d="M500.41,267.46a7,7,0,0,0-7,7v63.16H430.28a7,7,0,0,0,0,13.94h70.13a7,7,0,0,0,7-7V274.43a7,7,0,0,0-7-7Z"/><path class="cls-1" d="M500.41,0H430.28a7,7,0,1,0,0,13.94h63.16V77.1a7,7,0,1,0,13.94,0V7a7,7,0,0,0-7-7Z"/><path class="cls-1" d="M77.1,0H7A7,7,0,0,0,0,7V77.1a7,7,0,0,0,13.94,0V13.94H77.1A7,7,0,0,0,77.1,0Z"/><path class="cls-1" d="M77.1,337.59H13.94V274.43a7,7,0,1,0-13.94,0v70.13a7,7,0,0,0,7,7H77.1a7,7,0,0,0,0-13.94Z"/></g></g></svg>