<svg xmlns="http://www.w3.org/2000/svg" viewBox="0 0 496 479.2"><defs><style>.cls-1{fill:#fff;}</style></defs><g id="Layer_2" data-name="Layer 2"><g id="Layer_1-2" data-name="Layer 1"><path class="cls-1" d="M65.8,136a72,72,0,0,0,83.25,86.81h0A72.15,72.15,0,0,0,207.55,160a70.58,70.58,0,0,0,.45-8,73.55,73.55,0,0,0-.47-8H496v24a72.08,72.08,0,0,1-72,72H352a47.86,47.86,0,0,1-16,35.77V351.2h96v-24a40,40,0,0,1,40-40h24v192H472a40,40,0,0,1-40-40v-24H312a40,40,0,0,1-40-40V275.77A47.86,47.86,0,0,1,256,240H136a88.1,88.1,0,0,1-88-88c0-2.7.17-5.36.41-8H0v-8A88.1,88.1,0,0,1,88,48h98.23l16-48H309.77l16,48H424a72.08,72.08,0,0,1,72,72v9.63H159.7a71.87,71.87,0,0,0-26.36-49.49A72.09,72.09,0,0,0,65.8,136Z"/></g></g></svg>