<svg xmlns="http://www.w3.org/2000/svg" viewBox="0 0 2560 1440"><defs><style>.cls-1{fill:#061019;}.cls-12,.cls-14,.cls-2,.cls-3{fill:#0a1622;}.cls-12,.cls-2,.cls-3{stroke:#112435;}.cls-12,.cls-2,.cls-3,.cls-5,.cls-8{stroke-miterlimit:10;}.cls-2,.cls-5{stroke-width:4px;}.cls-2,.cls-3{opacity:0.5;}.cls-12,.cls-3,.cls-8{stroke-width:2px;}.cls-4{fill:#0e202d;}.cls-13,.cls-5,.cls-8{fill:none;}.cls-5{stroke:#d11c3d;stroke-linecap:round;}.cls-5,.cls-9{opacity:0.8;}.cls-11,.cls-6,.cls-7,.cls-9{fill:#fff;}.cls-7{font-size:31.42px;}.cls-7,.cls-9{font-family:Rubik-Light, Rubik;font-weight:300;}.cls-8{stroke:#e6e6e6;}.cls-9{font-size:28px;}.cls-10{fill:#009cb5;}.cls-11{font-size:32px;font-family:Roboto-Medium, Roboto;font-weight:500;}</style></defs><g id="Backgrounds"><rect id="Backgrounds-2" data-name="Backgrounds" class="cls-1" y="-0.01" width="2560" height="1440"/></g><g id="Circle-Large"><circle class="cls-2" cx="1280" cy="719.99" r="949.72"/></g><g id="Circle-small"><circle class="cls-3" cx="1280" cy="719.99" r="666.67"/></g><g id="Shield-Symbol"><path class="cls-4" d="M1280,1237s413.56-206.78,413.56-517V358.12L1280,203,866.43,358.12V720C866.43,1030.17,1280,1237,1280,1237Z"/></g><g id="Shield-Line"><line id="Shield-Line-2" data-name="Shield-Line" class="cls-5" x1="866.43" y1="358.12" x2="1280" y2="203.03"/></g><g id="Text"><path class="cls-6" d="M976.39,610.79H951.54q-12.74,0-18.89-5.09T926.49,590V558.35q0-10.59,6.16-15.73t18.89-5.15h24.85a3.83,3.83,0,0,1,2.8.87,3.88,3.88,0,0,1,.86,2.8v12.32a3.14,3.14,0,0,1-3.66,3.67H955.92a7.19,7.19,0,0,0-4.68,1.27,4.68,4.68,0,0,0-1.53,3.82v24.24a4.38,4.38,0,0,0,1.53,3.71,7.66,7.66,0,0,0,4.68,1.17h20.47a3.83,3.83,0,0,1,2.8.87,3.88,3.88,0,0,1,.86,2.8v12.12a3.88,3.88,0,0,1-.86,2.8A3.83,3.83,0,0,1,976.39,610.79Z"/><path class="cls-6" d="M1022.52,607.13a3.14,3.14,0,0,1-3.67,3.66h-15a3.13,3.13,0,0,1-3.66-3.66V580.24a30.29,30.29,0,0,1,1-7,78,78,0,0,1,3-9.27l8.86-23.12a4.72,4.72,0,0,1,1.88-2.54,6.08,6.08,0,0,1,3.31-.82h27.39a5.88,5.88,0,0,1,3.21.82,4.72,4.72,0,0,1,1.88,2.54l8.86,23.12a78,78,0,0,1,3,9.27,30.29,30.29,0,0,1,1,7v26.89a3.88,3.88,0,0,1-.86,2.8,3.83,3.83,0,0,1-2.8.86h-15.38a4.37,4.37,0,0,1-3-.86,3.57,3.57,0,0,1-1-2.8V592.87h-18Zm5.8-48.27-4.78,15.48h16l-4.78-15.48a3.9,3.9,0,0,0-.87-1.32,1.51,1.51,0,0,0-1.07-.41h-2.54a1.51,1.51,0,0,0-1.07.41A3.76,3.76,0,0,0,1028.32,558.86Z"/><path class="cls-6" d="M1105.61,610.79h-15.68a3.14,3.14,0,0,1-3.67-3.66v-66a3.15,3.15,0,0,1,3.67-3.67h33.91q11.4,0,15.73,4.74t4.33,12.27v4.68a18.84,18.84,0,0,1-1.27,7.29,7.93,7.93,0,0,1-4.43,4.32,13.43,13.43,0,0,1,8.91,4.48q3.41,3.87,3.41,10.29v21.59a3.14,3.14,0,0,1-3.67,3.66h-15.78a3.14,3.14,0,0,1-3.67-3.66V591.55a5.25,5.25,0,0,0-.86-3.31,3.66,3.66,0,0,0-3-1.07h-14.25v20a3.14,3.14,0,0,1-3.67,3.66Zm3.67-55v13h7.63q2.65,0,3.57-1.38a6,6,0,0,0,.92-3.41v-3.46a6,6,0,0,0-.92-3.41q-.92-1.38-3.57-1.38Z"/><path class="cls-6" d="M1210.09,610.79h-34.32a3.83,3.83,0,0,1-2.8-.86,3.88,3.88,0,0,1-.86-2.8v-66a3.88,3.88,0,0,1,.86-2.8,3.83,3.83,0,0,1,2.8-.87h34.32q12.73,0,18.89,5.1t6.16,15.68V590q0,10.59-6.16,15.68T1210.09,610.79Zm-14.87-53.87v34.63h12.12a4.84,4.84,0,0,0,3.62-1.22,5.29,5.29,0,0,0,1.17-3.77V561.81a5.08,5.08,0,0,0-1.17-3.71,5,5,0,0,0-3.62-1.18Z"/><path class="cls-6" d="M1313.75,610.79h-51.83a3.14,3.14,0,0,1-3.67-3.66v-66a3.15,3.15,0,0,1,3.67-3.67h15.79a3.14,3.14,0,0,1,3.66,3.67v50.41h14v-16.5a3.15,3.15,0,0,1,3.67-3.67h14.76a3.15,3.15,0,0,1,3.67,3.67v32.08a3.14,3.14,0,0,1-3.67,3.66Z"/><path class="cls-6" d="M1360,607.13a3.88,3.88,0,0,1-.86,2.8,3.83,3.83,0,0,1-2.8.86h-15a3.14,3.14,0,0,1-3.67-3.66V580.24a30.35,30.35,0,0,1,1-7,74.52,74.52,0,0,1,3-9.27l8.85-23.12a4.78,4.78,0,0,1,1.89-2.54,6.08,6.08,0,0,1,3.31-.82h27.39a5.88,5.88,0,0,1,3.21.82,4.77,4.77,0,0,1,1.88,2.54l8.86,23.12a76,76,0,0,1,3,9.27,29.82,29.82,0,0,1,1,7v26.89a3.88,3.88,0,0,1-.86,2.8,3.83,3.83,0,0,1-2.8.86H1382a4.37,4.37,0,0,1-3-.86,3.57,3.57,0,0,1-1-2.8V592.87h-18Zm5.81-48.27L1361,574.34h16l-4.79-15.48a3.9,3.9,0,0,0-.86-1.32,1.53,1.53,0,0,0-1.07-.41h-2.55a1.55,1.55,0,0,0-1.07.41A3.9,3.9,0,0,0,1365.79,558.86Z"/><path class="cls-6" d="M1454.28,610.79h-16.5a3.83,3.83,0,0,1-2.8-.86,3.88,3.88,0,0,1-.86-2.8v-50h-15a3.15,3.15,0,0,1-3.67-3.67V541.14a3.15,3.15,0,0,1,3.67-3.67h53.77a3.14,3.14,0,0,1,3.66,3.67v12.32a3.14,3.14,0,0,1-3.66,3.67h-15v50a3.14,3.14,0,0,1-3.67,3.66Z"/><path class="cls-6" d="M1544.91,610.79h-24.85q-12.72,0-18.89-5.09T1495,590V558.35q0-10.59,6.16-15.73t18.89-5.15h24.85a3.15,3.15,0,0,1,3.67,3.67v12.32a3.15,3.15,0,0,1-3.67,3.67h-20.47a7.2,7.2,0,0,0-4.68,1.27,4.68,4.68,0,0,0-1.53,3.82v24.24a4.38,4.38,0,0,0,1.53,3.71,7.68,7.68,0,0,0,4.68,1.17h20.47a3.15,3.15,0,0,1,3.67,3.67v12.12a3.14,3.14,0,0,1-3.67,3.66Z"/><path class="cls-6" d="M1589.72,610.79h-15.79a3.13,3.13,0,0,1-3.66-3.66v-66a3.14,3.14,0,0,1,3.66-3.67h15.79a3.14,3.14,0,0,1,3.66,3.67v22.1h17v-22.1a3.14,3.14,0,0,1,3.66-3.67h15.79a3.83,3.83,0,0,1,2.8.87,3.88,3.88,0,0,1,.86,2.8v66a3.88,3.88,0,0,1-.86,2.8,3.83,3.83,0,0,1-2.8.86h-15.79a3.13,3.13,0,0,1-3.66-3.66V584.52h-17v22.61a3.13,3.13,0,0,1-3.66,3.66Z"/><text class="cls-7" transform="translate(986.37 676.21)">building trust between digital and physical</text><line class="cls-8" x1="1194.32" y1="740.78" x2="1365.67" y2="740.78"/><text class="cls-9" transform="translate(1092.96 805.95)">Flexible and powerfull system<tspan x="-37.18" y="33.6">suitable to small and large business</tspan></text><g id="Button-CTA"><rect class="cls-10" x="1146.66" y="911" width="266.67" height="80" rx="40"/><text class="cls-11" transform="translate(1177.8 960.35)">Contact Today</text></g></g><g id="Icon-12-small"><g id="Layer_48" data-name="Layer 48"><circle class="cls-12" cx="1898.18" cy="469.82" r="33.33"/></g><g id="Layer_47" data-name="Layer 47"><circle class="cls-12" cx="1898.18" cy="469.82" r="33.33"/><circle class="cls-6" cx="1913.35" cy="454.64" r="3.16"/><path class="cls-6" d="M1892.49,468.55h1.26v7.59h-1.26Z"/><path class="cls-6" d="M1896.28,469.82h3.79v2.81a10.06,10.06,0,0,1,12.65-2.08V459a4.38,4.38,0,0,1-2-.84l-3.86,3.87a1.86,1.86,0,0,1,.19.81,1.9,1.9,0,1,1-3.8,0,2,2,0,0,1,.19-.81l-1.27-1.27a2,2,0,0,1-.81.19,2,2,0,0,1-.81-.19l-3.17,3.17a2,2,0,0,1,.19.81,1.9,1.9,0,1,1-1.9-1.9,1.86,1.86,0,0,1,.81.19l3.17-3.17a1.86,1.86,0,0,1-.19-.81,1.9,1.9,0,1,1,3.79,0,1.86,1.86,0,0,1-.19.81l1.28,1.28a1.86,1.86,0,0,1,.81-.19,1.82,1.82,0,0,1,.81.19l3.87-3.87a4.39,4.39,0,0,1-.7-1.38h-29.26v22.75h17.73a8.84,8.84,0,0,1,.15-1.26h-1.45Zm-12.64-12.65h8.85v1.27h-8.85Zm0,2.53h8.85V461h-8.85Zm0,2.53h8.85v1.26h-8.85Zm0,2.53h8.85V466h-8.85Zm-2.53-7.59h1.26v1.27h-1.26Zm0,2.53h1.26V461h-1.26Zm0,2.53h1.26v1.26h-1.26Zm0,2.53h1.26V466h-1.26Zm3.79,12.64h-3.79v-6.32h3.79Zm5.06,0h-3.79v-5.06H1890Zm5.06,0h-3.8V467.29h3.8Z"/><path class="cls-6" d="M1908.29,470.48V473a6.33,6.33,0,0,1,5.69,6.29,6.24,6.24,0,0,1-.56,2.59l2.19,1.27a8.82,8.82,0,0,0-7.32-12.68Z"/><path class="cls-6" d="M1882.37,472.34h1.27v3.8h-1.27Z"/><circle class="cls-6" cx="1905.13" cy="462.86" r="0.63"/><path class="cls-6" d="M1887.43,473.61h1.27v2.53h-1.27Z"/><circle class="cls-6" cx="1901.34" cy="459.07" r="0.63"/><path class="cls-6" d="M1898.81,471.08h-1.26v5.06h.51a10.64,10.64,0,0,1,.75-1.73Z"/><path class="cls-6" d="M1901.34,479.3A6.33,6.33,0,0,1,1907,473v-2.53a8.82,8.82,0,0,0-7.32,12.68l2.19-1.27a6.24,6.24,0,0,1-.56-2.59Z"/><path class="cls-6" d="M1902.6,479.3a5.06,5.06,0,1,0,5.06-5.06A5.06,5.06,0,0,0,1902.6,479.3Zm5.06-3.8a3.8,3.8,0,1,1-3.79,3.8A3.8,3.8,0,0,1,1907.66,475.5Z"/><path class="cls-6" d="M1907.66,485.62a6.29,6.29,0,0,1-5.12-2.64l-2.21,1.28a8.84,8.84,0,0,0,14.65,0l-2.2-1.28A6.29,6.29,0,0,1,1907.66,485.62Z"/><circle class="cls-6" cx="1895.65" cy="464.76" r="0.63"/><circle class="cls-6" cx="1907.66" cy="479.3" r="2.53"/></g></g><g id="Icon-11-small"><g id="Layer_45" data-name="Layer 45"><circle class="cls-12" cx="1898.18" cy="970.26" r="33.33"/></g><g id="Layer_44" data-name="Layer 44"><circle class="cls-12" cx="1898.18" cy="970.26" r="33.33"/><path class="cls-6" d="M1902.11,972.71a7,7,0,0,1,.16,1.47c0,2.82-1.69,5.14-3.82,5.32v-6.79Z"/><path class="cls-6" d="M1897.9,972.71v6.79c-1.8-.15-3.28-1.82-3.7-4h0a.3.3,0,0,0,0-.1,6.59,6.59,0,0,1-.1-1.19,6.74,6.74,0,0,1,.09-1.11.36.36,0,0,0,0-.11h0a2,2,0,0,1,0-.24Z"/><path class="cls-6" d="M1902,972.16h-7.57c.61-1.94,2.08-3.31,3.78-3.31S1901.35,970.22,1902,972.16Z"/><path class="cls-6" d="M1915.12,961.88v22.24h-33.88V961.88Zm-9.24,10.17a.27.27,0,0,0,0-.39.28.28,0,0,0-.4,0l-1,1h-1.78a6.31,6.31,0,0,0-1.19-2.64,4.7,4.7,0,0,0-1.55-1.32l.73-2.44a.27.27,0,0,0-.19-.34.28.28,0,0,0-.35.18l-.7,2.38a3.8,3.8,0,0,0-2.49,0l-.7-2.38a.28.28,0,0,0-.35-.18.28.28,0,0,0-.19.34l.73,2.44a4.73,4.73,0,0,0-1.56,1.32,6.29,6.29,0,0,0-1.18,2.64h-1.78l-1-1a.28.28,0,0,0-.39.39l1.11,1.11a.28.28,0,0,0,.2.08h1.79a7.42,7.42,0,0,0-.06.94,8.28,8.28,0,0,0,.07,1h-1.79a.28.28,0,0,0-.2.08l-1.11,1.11a.28.28,0,0,0,0,.4.32.32,0,0,0,.2.08.27.27,0,0,0,.19-.08l1-1h1.78a6.75,6.75,0,0,0,.75,2h-1.62a.28.28,0,0,0-.2.08l-1.11,1.11a.28.28,0,0,0,.2.47.24.24,0,0,0,.19-.08l1-1h1.88l0,.07a4,4,0,0,0,6.62,0l.06-.07h1.88l1,1a.29.29,0,0,0,.4,0,.29.29,0,0,0,0-.39l-1.12-1.11a.27.27,0,0,0-.19-.08h-1.63a6.75,6.75,0,0,0,.75-2h1.78l1,1a.29.29,0,0,0,.4,0,.3.3,0,0,0,0-.4l-1.11-1.11a.32.32,0,0,0-.2-.08h-1.8a8.31,8.31,0,0,0,.06-1c0-.31,0-.63,0-.94h1.8a.32.32,0,0,0,.2-.08Z"/><path class="cls-6" d="M1915.12,956.4v4.93h-33.88V956.4Zm-22.64,2.46a.84.84,0,0,0-.23-.57.81.81,0,0,0-1.15,0,.78.78,0,0,0-.24.57.81.81,0,0,0,.81.81.78.78,0,0,0,.57-.24.77.77,0,0,0,.24-.57Zm-3.19,0a.8.8,0,0,0-.24-.57.78.78,0,0,0-.57-.24.77.77,0,0,0-.57.24.78.78,0,0,0-.24.57.81.81,0,0,0,1.38.57.77.77,0,0,0,.24-.57Zm-3.19,0a.81.81,0,0,0-1.39-.57.83.83,0,0,0-.24.57.81.81,0,0,0,1.39.57.77.77,0,0,0,.24-.57Z"/></g></g><g id="Icon-10-small"><g id="Layer_42" data-name="Layer 42"><circle class="cls-12" cx="1280" cy="1386.75" r="33.33"/></g><g id="Layer_41" data-name="Layer 41"><circle class="cls-12" cx="1280" cy="1386.75" r="33.33"/><path class="cls-6" d="M1300.91,1375h0Z"/><polygon class="cls-6" points="1297.78 1381.6 1297.78 1381.6 1297.69 1381.62 1297.78 1381.6 1297.78 1381.6"/><path class="cls-6" d="M1303.49,1380l0,0a.89.89,0,0,1-.23.34l-.08.06-.09.06-.09,0a.35.35,0,0,1-.12,0l-4.17.81h0l-.08,0-5.18,1-5.17,1-5.18,1-5.17,1-5.17,1-3.33.67-.12-6,3-.57,5.17-1,5.18-1,5.17-1,5.17-1,5.18-1,2.44-.47,1.1-.21.17,0h.15l.07,0a.85.85,0,0,1,.26.11.1.1,0,0,1,0,0l.05,0,0,0,0,0,.07.08,0,0,0,0a.21.21,0,0,0,0,.06l0,.06a.14.14,0,0,1,0,.06,0,0,0,0,1,0,0v0h0c.07.36.53,2.7.72,3.71a1.36,1.36,0,0,1,0,.17c0,.08,0,.15,0,.2a.13.13,0,0,0,0,.06h0v.05a.09.09,0,0,0,0,0A1.05,1.05,0,0,1,1303.49,1380Z"/><path class="cls-6" d="M1302.6,1379.87v0Z"/><path class="cls-6" d="M1265.43,1376.79h-4.24a3,3,0,0,0-2.94,3v14.78h10.13v-14.78A3,3,0,0,0,1265.43,1376.79Zm-3.68,15a1,1,0,1,1,1-1A1,1,0,0,1,1261.75,1391.74Zm1.44-5.15H1263a1.58,1.58,0,0,1-.42-.09l-.1,0h0l-.11,0-.1,0-.21-.12-.09,0-.08-.07-.1-.07-.07-.06,0,0-.06-.06-.12-.13-.06-.07,0-.07-.1-.14,0-.07a.8.8,0,0,1-.08-.16.77.77,0,0,1-.07-.16,2.22,2.22,0,0,1-.16-.85,2.36,2.36,0,0,1,2.35-2.36,2.44,2.44,0,0,1,.77.13h0l.07,0,.07,0,.1,0,.29.17.1.07.1.08.06.06.07.06,0,0a2.09,2.09,0,0,1,.37.5l0,.06,0,.07,0,.1h0a.3.3,0,0,1,0,.1.56.56,0,0,1,0,.12.24.24,0,0,1,0,.08.57.57,0,0,1,0,.14.52.52,0,0,0,0,.11s0,.07,0,.11h0s0,.08,0,.11v.13a2.35,2.35,0,0,1-2.35,2.35Zm1.69,5.15a1,1,0,1,1,1-1A1,1,0,0,1,1264.88,1391.74Z"/><path class="cls-13" d="M1265.67,1384.25a2.35,2.35,0,0,1-2.35,2.35H1263a1.58,1.58,0,0,1-.42-.09l-.1,0h0l-.11,0-.1,0-.21-.12-.09,0-.08-.07-.1-.07-.07-.06,0,0-.06-.06-.12-.13-.06-.07,0-.07-.1-.14,0-.07a.8.8,0,0,1-.08-.16.77.77,0,0,1-.07-.16,2.22,2.22,0,0,1-.16-.85,2.36,2.36,0,0,1,2.35-2.36,2.44,2.44,0,0,1,.77.13h0l.07,0,.07,0,.1,0,.29.17.1.07.1.08.06.06.07.06,0,0a2.09,2.09,0,0,1,.37.5l0,.06,0,.07,0,.1h0a.3.3,0,0,1,0,.1.56.56,0,0,1,0,.12.24.24,0,0,1,0,.08.57.57,0,0,1,0,.14.52.52,0,0,0,0,.11s0,.07,0,.11h0s0,.08,0,.11Z"/><rect class="cls-6" x="1256.48" y="1394.52" width="13.68" height="4.23" rx="0.63"/><path class="cls-13" d="M1262.71,1390.78a1,1,0,1,1-1-1A1,1,0,0,1,1262.71,1390.78Z"/><path class="cls-13" d="M1265.84,1390.78a1,1,0,1,1-1-1A1,1,0,0,1,1265.84,1390.78Z"/></g></g><g id="Icon-9-small"><g id="Layer_33" data-name="Layer 33"><circle class="cls-12" cx="1280" cy="53.32" r="33.33"/></g><g id="Layer_32" data-name="Layer 32"><circle class="cls-12" cx="1280" cy="53.32" r="33.33"/><path class="cls-6" d="M1275.06,35.87h1.52v1.52h-1.52Z"/><path class="cls-6" d="M1275.06,48h1.52v1.52h-1.52Z"/><path class="cls-6" d="M1269,41.94h1.52v1.52H1269Z"/><path class="cls-6" d="M1269,35.87h1.52v1.52H1269Z"/><path class="cls-6" d="M1281.13,41.94h1.52v1.52h-1.52Z"/><path class="cls-6" d="M1273.54,57.12h4.55v1.52h-4.55Z"/><path class="cls-6" d="M1281.13,48h1.52v1.52h-1.52Z"/><path class="cls-6" d="M1281.13,35.87h1.52v1.52h-1.52Z"/><path class="cls-6" d="M1269,48h1.52v1.52H1269Z"/><path class="cls-6" d="M1275.06,41.94h1.52v1.52h-1.52Z"/><circle class="cls-6" cx="1275.82" cy="66.98" r="0.76"/><path class="cls-6" d="M1279.91,70.36a5.31,5.31,0,1,1,0-6.76,4.23,4.23,0,0,1,1.88-.41c.59,0,2.87.23,5.41.52V33.6a2.28,2.28,0,0,0-2.28-2.28h-18.21a2.28,2.28,0,0,0-2.27,2.28V64.7a10.64,10.64,0,0,0,10.62,10.63h1.52a10.65,10.65,0,0,0,8.94-4.89c-1.81.19-3.27.33-3.73.33A4.23,4.23,0,0,1,1279.91,70.36Zm-.3-11.72a1.52,1.52,0,0,1-1.52,1.51h-4.55a1.52,1.52,0,0,1-1.51-1.51V57.12a1.52,1.52,0,0,1,1.51-1.52h4.55a1.52,1.52,0,0,1,1.52,1.52Zm3,0h-1.52V57.12h1.52Zm3,0h-1.52V57.12h1.52Zm-6.07-22.77a1.52,1.52,0,0,1,1.52-1.51h1.52a1.52,1.52,0,0,1,1.51,1.51v1.52a1.52,1.52,0,0,1-1.51,1.52h-1.52a1.52,1.52,0,0,1-1.52-1.52Zm0,6.07a1.52,1.52,0,0,1,1.52-1.51h1.52a1.52,1.52,0,0,1,1.51,1.51v1.52a1.52,1.52,0,0,1-1.51,1.52h-1.52a1.52,1.52,0,0,1-1.52-1.52Zm0,6.07a1.52,1.52,0,0,1,1.52-1.51h1.52a1.52,1.52,0,0,1,1.51,1.51v1.52a1.52,1.52,0,0,1-1.51,1.52h-1.52a1.52,1.52,0,0,1-1.52-1.52Zm-6.07-12.14a1.52,1.52,0,0,1,1.52-1.51h1.52a1.52,1.52,0,0,1,1.51,1.51v1.52a1.52,1.52,0,0,1-1.51,1.52h-1.52a1.52,1.52,0,0,1-1.52-1.52Zm0,6.07a1.52,1.52,0,0,1,1.52-1.51h1.52a1.52,1.52,0,0,1,1.51,1.51v1.52a1.52,1.52,0,0,1-1.51,1.52h-1.52a1.52,1.52,0,0,1-1.52-1.52Zm0,6.07a1.52,1.52,0,0,1,1.52-1.51h1.52a1.52,1.52,0,0,1,1.51,1.51v1.52a1.52,1.52,0,0,1-1.51,1.52h-1.52a1.52,1.52,0,0,1-1.52-1.52Zm-6.07-12.14a1.52,1.52,0,0,1,1.52-1.51h1.52a1.52,1.52,0,0,1,1.52,1.51v1.52a1.53,1.53,0,0,1-1.52,1.52H1269a1.52,1.52,0,0,1-1.52-1.52Zm0,6.07a1.52,1.52,0,0,1,1.52-1.51h1.52a1.52,1.52,0,0,1,1.52,1.51v1.52a1.53,1.53,0,0,1-1.52,1.52H1269a1.52,1.52,0,0,1-1.52-1.52Zm0,6.07A1.52,1.52,0,0,1,1269,46.5h1.52A1.52,1.52,0,0,1,1272,48v1.52a1.53,1.53,0,0,1-1.52,1.52H1269a1.52,1.52,0,0,1-1.52-1.52Zm0,10.63H1266V57.12h1.51ZM1266,54.08V52.57h19.72v1.51Zm3,3h1.52v1.52H1269Z"/><path class="cls-6" d="M1280.71,64.91a5.31,5.31,0,0,1,0,4.14,2.75,2.75,0,0,0,1.08.21c.9,0,6.62-.67,10.72-1.16V65.86c-4.1-.49-9.82-1.16-10.72-1.16A2.75,2.75,0,0,0,1280.71,64.91Z"/><path class="cls-6" d="M1295.54,66.22s0,0-.08,0L1294,66v1.88l1.42-.18a.2.2,0,0,0,.11-.06Z"/><path class="cls-6" d="M1275.82,63.19a3.79,3.79,0,1,0,3.79,3.79A3.79,3.79,0,0,0,1275.82,63.19Zm0,6.07a2.28,2.28,0,1,1,2.27-2.28A2.28,2.28,0,0,1,1275.82,69.26Z"/></g></g><g id="Icon-8-small"><g id="Layer_36" data-name="Layer 36"><circle class="cls-12" cx="662" cy="469.82" r="33.33"/></g><g id="Layer_35" data-name="Layer 35"><circle class="cls-12" cx="662" cy="469.82" r="33.33"/><rect class="cls-6" x="671.87" y="472.91" width="2.61" height="11.58"/><rect class="cls-6" x="649.51" y="472.91" width="2.61" height="11.58"/><path class="cls-6" d="M665.65,460.07h0a3,3,0,0,1-1.81,2.72h0a2.09,2.09,0,0,1-.3.11h0l-.14,0-.07,0-.14,0h-.08l-.15,0H661.3a3,3,0,0,1-3-2.95h7.31Z"/><rect class="cls-6" x="649.51" y="460.07" width="2.61" height="4.43"/><rect class="cls-6" x="671.87" y="460.07" width="2.61" height="4.43"/><path class="cls-6" d="M676,453.34V459a1,1,0,0,1-1,1H649.12a1,1,0,0,1-1-1v-5.8s0,0,0-.05h0v0s0,0,0,0,0,0,0-.06l0-.05,0-.06s0,0,0-.05h0a.21.21,0,0,1,0-.06,1,1,0,0,1,.09-.13l0,0,0,0,.05-.05h0l.09-.07,0,0,.17-.09h0l.07,0,.1,0h7.9v1.85a.92.92,0,0,0,.92.92h8.43a.92.92,0,0,0,.92-.92v-1.85H675A1,1,0,0,1,676,453.34Z"/><path class="cls-6" d="M667.13,452.32v1.85a.92.92,0,0,1-.92.92h-8.43a.92.92,0,0,1-.92-.92v-1.85Z"/><path class="cls-6" d="M662,467.55a.53.53,0,0,1-.53-.53v-1.37a.53.53,0,1,1,1,0V467A.52.52,0,0,1,662,467.55Z"/><path class="cls-6" d="M658.08,466.32a.46.46,0,0,1-.29-.1.51.51,0,0,1-.14-.73l.77-1.13a.53.53,0,0,1,.73-.14.54.54,0,0,1,.14.74l-.77,1.12A.54.54,0,0,1,658.08,466.32Z"/><path class="cls-6" d="M665.91,466.32a.54.54,0,0,1-.44-.24L664.7,465a.54.54,0,0,1,.14-.74.53.53,0,0,1,.73.14l.77,1.13a.52.52,0,0,1-.13.73.49.49,0,0,1-.3.1Z"/><path class="cls-6" d="M653.75,485.32V487a.31.31,0,0,1-.31.31h-5.25a.31.31,0,0,1-.31-.31v-1.69a.82.82,0,0,1,.82-.82h4.23A.82.82,0,0,1,653.75,485.32Z"/><rect class="cls-6" x="649.51" y="467.3" width="2.61" height="2.81"/><rect class="cls-6" x="649.51" y="470.11" width="2.61" height="2.81"/><rect class="cls-6" x="649.51" y="464.49" width="2.61" height="2.81"/><path class="cls-6" d="M676.11,485.32V487a.32.32,0,0,1-.32.33h-5.23a.32.32,0,0,1-.32-.33v-1.67a.82.82,0,0,1,.82-.82h4.23A.82.82,0,0,1,676.11,485.32Z"/><rect class="cls-6" x="671.87" y="467.3" width="2.61" height="2.81"/><rect class="cls-6" x="671.87" y="470.11" width="2.61" height="2.81"/><rect class="cls-6" x="671.87" y="464.49" width="2.61" height="2.81"/></g></g><g id="Icon-7-small"><g id="Layer_39" data-name="Layer 39"><circle class="cls-12" cx="662" cy="970.26" r="33.33"/><rect class="cls-6" x="653" y="966.67" width="18.79" height="27.24" rx="1.51"/><rect class="cls-1" x="667.35" y="966.67" width="0.73" height="27.24"/><rect class="cls-1" x="663.37" y="966.67" width="0.73" height="27.24"/><rect class="cls-1" x="659.04" y="966.67" width="0.73" height="20.59"/><rect class="cls-1" x="655.95" y="966.67" width="0.73" height="20.59"/><rect class="cls-6" x="650.32" y="946.77" width="23.34" height="38.14" rx="0.56"/><path class="cls-14" d="M673.11,985.07H650.88a.71.71,0,0,1-.71-.72v-37a.71.71,0,0,1,.71-.71h22.23a.71.71,0,0,1,.71.71v37A.71.71,0,0,1,673.11,985.07Zm-22.23-38.15a.4.4,0,0,0-.4.4v37a.39.39,0,0,0,.4.4h22.23a.39.39,0,0,0,.4-.4v-37a.4.4,0,0,0-.4-.4Z"/><rect class="cls-1" x="654.64" y="950.8" width="14.7" height="8.82"/><rect x="654.64" y="963.73" width="2.94" height="2.94"/><rect x="666.41" y="963.73" width="2.94" height="2.94"/><rect x="660.53" y="963.73" width="2.94" height="2.94"/><rect x="654.64" y="968.18" width="2.94" height="2.94"/><rect x="666.41" y="968.18" width="2.94" height="2.94"/><rect x="660.53" y="968.18" width="2.94" height="2.94"/><rect x="654.64" y="972.64" width="2.94" height="2.94"/><rect x="666.41" y="972.64" width="2.94" height="2.94"/><rect x="660.53" y="972.64" width="2.94" height="2.94"/><rect x="654.64" y="977.1" width="2.94" height="2.94"/><rect x="666.41" y="977.1" width="2.94" height="2.94"/><rect x="660.53" y="977.1" width="2.94" height="2.94"/></g></g><g id="Icon-6-large"><g id="Layer_27" data-name="Layer 27"><circle class="cls-12" cx="1996.66" cy="96.94" r="50"/></g><g id="Layer_26" data-name="Layer 26"><circle class="cls-12" cx="1996.66" cy="96.94" r="50"/><g id="Icon-4"><path class="cls-6" d="M2015.88,86.16v5h-4.36v-5a14.81,14.81,0,0,0-1.17-5.78,14.85,14.85,0,0,0-27.37,0,14.64,14.64,0,0,0-1.17,5.78v5h-4.36v-5a19.22,19.22,0,1,1,38.43,0Z"/><path class="cls-6" d="M2001.77,105.93a5.07,5.07,0,0,1-2.45,4.36.5.5,0,0,0-.24.43v7.52h-4.83v-7.52a.5.5,0,0,0-.24-.43,5.1,5.1,0,1,1,7.76-4.36Z"/><path class="cls-6" d="M2022.68,92.12v34.82h-52V92.12h52ZM2002,109a6.09,6.09,0,1,0-8.69,2v7.75a.48.48,0,0,0,.49.49h5.82a.49.49,0,0,0,.5-.49V111a6.16,6.16,0,0,0,1.88-2Z"/></g></g></g><g id="Icon-5-large"><g id="Layer_30" data-name="Layer 30"><circle class="cls-12" cx="2229.72" cy="719.99" r="50"/></g><g id="Layer_29" data-name="Layer 29"><circle class="cls-12" cx="2229.72" cy="719.99" r="50"/><path class="cls-6" d="M2199.72,708h5.11v5h-5.11Z"/><path class="cls-6" d="M2216.71,713h-10.89v-5h10a26.67,26.67,0,0,0,.92,5Z"/><path class="cls-6" d="M2219.33,718.9h-7.42V714H2217a23.45,23.45,0,0,0,1.55,3.63c.23.44.49.88.76,1.31Z"/><path class="cls-6" d="M2210.93,714v4.94h-11.21V714h11.21Z"/><path class="cls-6" d="M2199.72,719.88h5.11v4.94h-5.11Z"/><path class="cls-6" d="M2217,719.88v4.94h-11.21v-4.94H2217Z"/><path class="cls-6" d="M2225,724.82h-7v-4.94h2a20.85,20.85,0,0,0,3.14,3.48A18.06,18.06,0,0,0,2225,724.82Z"/><path class="cls-6" d="M2223.13,725.81v4.94h-11.22v-4.94h11.22Z"/><path class="cls-6" d="M2210.93,725.81v4.94h-11.21v-4.94h11.21Z"/><path class="cls-6" d="M2199.72,731.73h5.11v4.94h-5.11Z"/><path class="cls-6" d="M2217,731.73v4.94h-11.21v-4.94H2217Z"/><path class="cls-6" d="M2210.93,737.65v5h-11.21v-5h11.21Z"/><path class="cls-6" d="M2223.13,737.65v5h-11.22v-5h11.22Z"/><path class="cls-6" d="M2229.23,731.73v4.94H2218v-4.94h11.22Z"/><path class="cls-6" d="M2235.32,737.65v5h-11.21v-5h11.21Z"/><path class="cls-6" d="M2247.52,737.65v5h-11.21v-5h11.21Z"/><path class="cls-6" d="M2259.72,737.65v5H2248.5v-5h11.22Z"/><path class="cls-6" d="M2254.6,731.73h5.12v4.94h-5.12Z"/><path class="cls-6" d="M2253.62,731.73v4.94h-11.21v-4.94h11.21Z"/><path class="cls-6" d="M2241.42,731.73v4.94h-11.21v-4.94h11.21Z"/><path class="cls-6" d="M2235.32,725.81v4.94h-11.21v-4.94h2.55a16.44,16.44,0,0,0,2.89,1.19.65.65,0,0,0,.34,0,16.76,16.76,0,0,0,2.89-1.19Z"/><path class="cls-6" d="M2247.52,725.81v4.94h-11.21v-4.94h11.21Z"/><path class="cls-6" d="M2241.42,719.88v4.94h-7a17,17,0,0,0,1.88-1.46,20,20,0,0,0,3.14-3.48Z"/><path class="cls-6" d="M2259.72,725.81v4.94H2248.5v-4.94h11.22Z"/><path class="cls-6" d="M2254.6,719.88h5.12v4.94h-5.12Z"/><path class="cls-6" d="M2253.62,719.88v4.94h-11.21v-4.94h11.21Z"/><path class="cls-6" d="M2247.52,714v4.94h-7.41c.27-.43.53-.87.76-1.32a23.34,23.34,0,0,0,1.55-3.62Z"/><path class="cls-6" d="M2259.72,714v4.94H2248.5V714h11.22Z"/><path class="cls-6" d="M2254.6,708h5.12v5h-5.12Z"/><path class="cls-6" d="M2253.62,708v5h-10.9a26.68,26.68,0,0,0,.93-5Z"/><path class="cls-6" d="M2239.48,706.4a21.15,21.15,0,0,1-2.38,9.18,7.4,7.4,0,0,1-14.77,0,21.44,21.44,0,0,1-2.38-9.18,28.82,28.82,0,0,0,9.77-4.72A28.79,28.79,0,0,0,2239.48,706.4Zm-4.62,3.28a.5.5,0,0,0,0-.7.49.49,0,0,0-.69,0l-6,6-2.33-2.32a.47.47,0,0,0-.69,0,.49.49,0,0,0,0,.69l2.67,2.68a.52.52,0,0,0,.35.14.5.5,0,0,0,.35-.14Z"/><path class="cls-6" d="M2242.69,703.74a24.86,24.86,0,0,1-2.69,13.39,18.28,18.28,0,0,1-10.28,8.89,17.74,17.74,0,0,1-9.06-6.9l0,0a20.69,20.69,0,0,1-1.2-2,24.84,24.84,0,0,1-2.69-13.39,24,24,0,0,0,4.22-1.08,24.64,24.64,0,0,0,8.75-5.27,24.64,24.64,0,0,0,8.75,5.27,24.22,24.22,0,0,0,4.22,1.08Zm-2.21,2.29a.5.5,0,0,0-.38-.49,27.49,27.49,0,0,1-10.08-4.87.5.5,0,0,0-.61,0,27.49,27.49,0,0,1-10.08,4.87.48.48,0,0,0-.37.49,22.44,22.44,0,0,0,2.5,10,16.13,16.13,0,0,0,8.08,7.47.45.45,0,0,0,.36,0,16.17,16.17,0,0,0,8.08-7.47A22.71,22.71,0,0,0,2240.48,706Z"/></g></g><g id="Icon-4-large"><circle class="cls-12" cx="1996.66" cy="1343.14" r="50"/><path class="cls-6" d="M2001.11,1347.38a4.3,4.3,0,0,1-2.16,3.72.45.45,0,0,0-.24.4v10h-3.77v-10a.47.47,0,0,0-.23-.4,4.28,4.28,0,1,1,6.4-3.72Z"/><path class="cls-6" d="M2012.38,1344.16v17.36h-12.74v-9.75a5.21,5.21,0,1,0-5.63,0v9.75h-12.74v-17.36a15.56,15.56,0,1,1,31.11,0Z"/><path class="cls-6" d="M2017.23,1362.45l2.21,8.44h-45.22l2.21-8.44Z"/><path class="cls-6" d="M2025.43,1344.33h-5.72a.81.81,0,1,0,0,1.62h5.72a.81.81,0,1,0,0-1.62Z"/><path class="cls-6" d="M2022.44,1330.94a.76.76,0,0,0-.08-.61.78.78,0,0,0-.49-.38.79.79,0,0,0-.62.08l-5,2.86a.8.8,0,0,0-.38.49.79.79,0,0,0,.08.62.83.83,0,0,0,.71.4.79.79,0,0,0,.4-.1l5-2.86a.8.8,0,0,0,.38-.5Z"/><path class="cls-6" d="M2011.6,1319.44a.81.81,0,0,0-1.11.29l-2.87,5a.87.87,0,0,0-.08.61.83.83,0,0,0,.38.5.8.8,0,0,0,.41.1.82.82,0,0,0,.7-.4l2.86-5a.81.81,0,0,0-.29-1.11Z"/><path class="cls-6" d="M1996.83,1315.39a.82.82,0,0,0-.82.82v5.72a.82.82,0,0,0,1.63,0v-5.72A.82.82,0,0,0,1996.83,1315.39Z"/><path class="cls-6" d="M1983.13,1319.57a.83.83,0,0,0-1.11-.29.81.81,0,0,0-.3,1.11l2.86,4.95a.83.83,0,0,0,.71.4.8.8,0,0,0,.4-.11.79.79,0,0,0,.38-.49.76.76,0,0,0-.08-.61Z"/><path class="cls-6" d="M1977.2,1332.61l-5-2.87a.83.83,0,0,0-1.11.3.81.81,0,0,0,.3,1.11l5,2.86a.84.84,0,0,0,.41.11.8.8,0,0,0,.7-.4.81.81,0,0,0-.29-1.11Z"/><path class="cls-6" d="M1973.62,1344h-5.72a.81.81,0,1,0,0,1.62h5.72a.81.81,0,0,0,0-1.62Z"/></g><g id="Icon-3-large"><g id="Layer_23" data-name="Layer 23"><circle class="cls-12" cx="563.33" cy="1343.14" r="50"/></g><g id="Layer_22" data-name="Layer 22"><circle class="cls-12" cx="563.33" cy="1343.14" r="50"/><g id="outline"><path class="cls-6" d="M563.33,1322a8.4,8.4,0,0,0-6,2.46,1,1,0,0,0,0,1.33.93.93,0,0,0,1.32,0h0a6.55,6.55,0,0,1,9.28,0h0a.94.94,0,0,0,1.33,0h0a.94.94,0,0,0,0-1.33A8.4,8.4,0,0,0,563.33,1322Z"/><path class="cls-6" d="M572,1321.83a12.2,12.2,0,0,0-17.23,0,.94.94,0,0,0,0,1.33h0a.92.92,0,0,0,1.32,0,10.3,10.3,0,0,1,14.58,0h0a.94.94,0,1,0,1.33-1.32Z"/><path class="cls-6" d="M563.33,1325.77a4.68,4.68,0,0,0-3.31,1.37.94.94,0,0,0,1.22,1.42l.1-.1a2.81,2.81,0,0,1,4,0,.94.94,0,0,0,1.42-1.22l-.1-.1a4.68,4.68,0,0,0-3.31-1.37Z"/><path class="cls-6" d="M544.58,1361.46h5.63a.94.94,0,0,0,0-1.88h-5.63a.94.94,0,1,0,0,1.88Z"/><path class="cls-6" d="M553,1361.46h1.87a.94.94,0,0,0,0-1.88H553a.94.94,0,0,0,0,1.88Z"/><path class="cls-6" d="M573.64,1364.27a3.75,3.75,0,1,0-3.75-3.75A3.75,3.75,0,0,0,573.64,1364.27Zm0-5.62a1.88,1.88,0,1,1-1.87,1.87A1.88,1.88,0,0,1,573.64,1358.65Z"/><path class="cls-6" d="M539.89,1368h37.5a3.75,3.75,0,0,0,3.75-3.75v-3.75h5.63a3.75,3.75,0,0,0,3.75-3.75v-22.5a3.75,3.75,0,0,0-3.75-3.75h-37.5a3.75,3.75,0,0,0-3.75,3.75V1338h-5.63a3.75,3.75,0,0,0-3.75,3.75v22.5A3.75,3.75,0,0,0,539.89,1368Zm48.75-11.25a1.88,1.88,0,0,1-1.87,1.88h-5.63v-2.38a3.67,3.67,0,0,0,1.88.52,3.75,3.75,0,0,0,0-7.5,3.68,3.68,0,0,0-1.88.53v-4.3h7.5Zm-7.5-3.75a1.88,1.88,0,1,1,1.88,1.88A1.88,1.88,0,0,1,581.14,1353Zm-33.75-18.75a1.88,1.88,0,0,1,1.88-1.87h37.5a1.87,1.87,0,0,1,1.87,1.87v.94H547.39Zm0,2.81h41.25v6.57h-7.5v-1.88a3.75,3.75,0,0,0-3.75-3.75h-30Zm-9.37,4.69a1.87,1.87,0,0,1,1.87-1.87h37.5a1.88,1.88,0,0,1,1.88,1.87v.94H538Zm0,2.81h41.25v6.57H538Zm0,8.44h41.25v11.25a1.88,1.88,0,0,1-1.88,1.88h-37.5a1.88,1.88,0,0,1-1.87-1.88Z"/></g></g></g><g id="Icon-2-large"><g id="Layer_20" data-name="Layer 20"><circle class="cls-12" cx="334.06" cy="719.99" r="50"/></g><g id="Layer_19" data-name="Layer 19"><circle class="cls-12" cx="334.06" cy="719.99" r="50"/><circle class="cls-6" cx="334.06" cy="719.99" r="2.11"/><path class="cls-6" d="M334.06,712a8,8,0,1,1-8.05,8A8,8,0,0,1,334.06,712Zm3,8a3,3,0,1,0-3,3A3,3,0,0,0,337.09,720Z"/><path class="cls-6" d="M360.11,720l-5,5A29.83,29.83,0,0,1,313,725l-5-5,5-5a29.83,29.83,0,0,1,42.14,0ZM343,720a9,9,0,1,0-2.63,6.35A8.91,8.91,0,0,0,343,720Z"/><path class="cls-6" d="M363,730.74a.82.82,0,0,0-.82.81V739h-7.4a.82.82,0,1,0,0,1.64H363a.82.82,0,0,0,.81-.82v-8.22a.81.81,0,0,0-.81-.81Z"/><path class="cls-6" d="M363,699.39h-8.22a.82.82,0,0,0,0,1.64h7.4v7.4a.82.82,0,0,0,.82.82.82.82,0,0,0,.81-.82v-8.22a.82.82,0,0,0-.81-.82Z"/><path class="cls-6" d="M313.36,699.39h-8.22a.82.82,0,0,0-.81.82v8.22a.82.82,0,0,0,.81.82.82.82,0,0,0,.82-.82V701h7.4a.82.82,0,1,0,0-1.64Z"/><path class="cls-6" d="M313.36,739H306v-7.4a.82.82,0,0,0-.82-.81.81.81,0,0,0-.81.81v8.22a.82.82,0,0,0,.81.82h8.22a.82.82,0,1,0,0-1.64Z"/></g></g><g id="Icon-1-large"><g id="Layer_14" data-name="Layer 14"><circle class="cls-12" cx="563.33" cy="96.94" r="50"/></g><path class="cls-6" d="M542,84.8a8.33,8.33,0,0,0-.21,1.88,8.48,8.48,0,0,0,10,8.3h0a8.46,8.46,0,0,0,6.85-7.37,7.15,7.15,0,0,0,0-.93c0-.32,0-.63,0-.94h33.8v2.81A8.45,8.45,0,0,1,584,97h-8.44a5.61,5.61,0,0,1-1.88,4.19V110h11.25v-2.81a4.7,4.7,0,0,1,4.69-4.69h2.81V125h-2.81a4.7,4.7,0,0,1-4.69-4.69v-2.81H570.83a4.7,4.7,0,0,1-4.69-4.69V101.18A5.6,5.6,0,0,1,564.27,97H550.21a10.33,10.33,0,0,1-10.32-10.31c0-.32,0-.63.05-.94h-5.67V84.8a10.32,10.32,0,0,1,10.31-10.31h11.51L558,68.86h12.6l1.87,5.63H584a8.44,8.44,0,0,1,8.43,8.44v1.13H553a8.37,8.37,0,0,0-3.09-5.8A8.43,8.43,0,0,0,542,84.8Z"/></g></svg>