<svg xmlns="http://www.w3.org/2000/svg" viewBox="0 0 464 424.6"><defs><style>.cls-1{fill:#fff;}</style></defs><g id="Layer_2" data-name="Layer 2"><g id="Layer_3" data-name="Layer 3"><g id="outline"><path class="cls-1" d="M232,32a71.51,71.51,0,0,0-51,21,8,8,0,0,0,11.31,11.33l.05,0a56,56,0,0,1,79.2,0h0a8,8,0,0,0,11.31,0l0,0a8,8,0,0,0,0-11.28A71.51,71.51,0,0,0,232,32Z"/><path class="cls-1" d="M305.52,30.44a104,104,0,0,0-147,0,8,8,0,0,0,0,11.32l0,0a8,8,0,0,0,11.28,0,88,88,0,0,1,124.45,0l0,0a8,8,0,0,0,11.33-11.31Z"/><path class="cls-1" d="M232,64a40,40,0,0,0-28.24,11.68A8,8,0,1,0,215,87,24,24,0,0,1,249,87a8,8,0,1,0,12.15-10.41,8.93,8.93,0,0,0-.87-.87A40,40,0,0,0,232,64Z"/><path class="cls-1" d="M72,368.6h48a8,8,0,0,0,0-16H72a8,8,0,0,0,0,16Z"/><path class="cls-1" d="M144,368.6h16a8,8,0,0,0,0-16H144a8,8,0,0,0,0,16Z"/><path class="cls-1" d="M320,392.6a32,32,0,1,0-32-32A32,32,0,0,0,320,392.6Zm0-48a16,16,0,1,1-16,16A16,16,0,0,1,320,344.6Z"/><path class="cls-1" d="M32,424.6H352a32,32,0,0,0,32-32v-32h48a32,32,0,0,0,32-32v-192a32,32,0,0,0-32-32H112a32,32,0,0,0-32,32v32H32a32,32,0,0,0-32,32v192A32,32,0,0,0,32,424.6Zm416-96a16,16,0,0,1-16,16H384V324.28a31.22,31.22,0,0,0,16,4.48,32,32,0,0,0,0-64,31.32,31.32,0,0,0-16,4.48V232.6h64Zm-64-32a16,16,0,1,1,16,16A16,16,0,0,1,384,296.6ZM96,136.6a16,16,0,0,1,16-16H432a16,16,0,0,1,16,16v8H96Zm0,24H448v56H384v-16a32,32,0,0,0-32-32H96Zm-80,40a16,16,0,0,1,16-16H352a16,16,0,0,1,16,16v8H16Zm0,24H368v56H16Zm0,72H368v96a16,16,0,0,1-16,16H32a16,16,0,0,1-16-16Z"/></g></g></g></svg>