<svg xmlns="http://www.w3.org/2000/svg" xmlns:xlink="http://www.w3.org/1999/xlink" viewBox="0 0 516.19 197.68"><defs><style>.cls-1{fill:#fff;}.cls-2{fill:#fff;}</style><linearGradient id="linear-gradient" x1="101.03" y1="105.82" x2="516.19" y2="105.82" gradientUnits="userSpaceOnUse"><stop offset="0" stop-color="#009cb5"/><stop offset="1" stop-color="#17253f"/></linearGradient><linearGradient id="linear-gradient-2" x1="0" y1="91.86" x2="415.16" y2="91.86" xlink:href="#linear-gradient"/></defs><title>CardLatch-Logo-Original</title><g id="Layer_2" data-name="Layer 2"><g id="צבעוני"><g id="רק_סמל" data-name="רק סמל"><path class="cls-1" d="M516.19,94.75c0,56.85-95,102.93-212.27,102.93-95.45,0-176.18-30.54-202.89-72.57,35.5,28.24,98,47,169.11,47,110.56,0,200.18-45.26,200.18-101.11,0-21.15-12.86-40.78-34.84-57C484.64,32.81,516.19,62,516.19,94.75Z"/><path class="cls-2" d="M0,102.93C0,46.09,95,0,212.27,0c95.45,0,176.18,30.55,202.89,72.58-35.5-28.24-98-47-169.11-47C135.49,25.6,45.87,70.87,45.87,126.71c0,21.15,12.86,40.78,34.84,57C31.55,164.87,0,135.69,0,102.93Z"/></g></g></g></svg>