<svg xmlns="http://www.w3.org/2000/svg" viewBox="0 0 464 464"><defs><style>.cls-1{fill:#fff;}</style></defs><g id="Layer_2" data-name="Layer 2"><g id="Layer_3" data-name="Layer 3"><circle class="cls-1" cx="424" cy="40" r="40"/><path class="cls-1" d="M160,216h16v96H160Z"/><path class="cls-1" d="M208,232h48v35.62a127.25,127.25,0,0,1,160-26.3v-146a55.57,55.57,0,0,1-25.47-10.58l-48.94,48.93A23.59,23.59,0,0,1,344,144a24,24,0,0,1-48,0,23.52,23.52,0,0,1,2.41-10.28L282.29,117.6a23.19,23.19,0,0,1-20.57,0L221.6,157.71A23.73,23.73,0,0,1,224,168a24,24,0,1,1-24-24,23.52,23.52,0,0,1,10.28,2.41l40.12-40.12A23.73,23.73,0,0,1,248,96a24,24,0,0,1,48,0,23.52,23.52,0,0,1-2.41,10.28l16.12,16.12a23.19,23.19,0,0,1,20.57,0l48.93-48.93A55.67,55.67,0,0,1,370.35,56H0V344H224.41a125.75,125.75,0,0,1,1.93-16H208ZM48,72H160V88H48Zm0,32H160v16H48Zm0,32H160v16H48Zm0,32H160v16H48ZM16,72H32V88H16Zm0,32H32v16H16Zm0,32H32v16H16Zm0,32H32v16H16ZM64,328H16V248H64Zm64,0H80V264h48Zm64,0H144V200h48Z"/><path class="cls-1" d="M360,240.41v32a79.83,79.83,0,0,1,64.87,112.42l27.75,16A111,111,0,0,0,464,352c0-59.06-46-107.46-104-111.59Z"/><path class="cls-1" d="M32,264H48v48H32Z"/><circle class="cls-1" cx="320" cy="144" r="8"/><path class="cls-1" d="M96,280h16v32H96Z"/><circle class="cls-1" cx="272" cy="96" r="8"/><path class="cls-1" d="M240,248H224v64h6.49A127.14,127.14,0,0,1,240,290.17Z"/><path class="cls-1" d="M272,352a80.1,80.1,0,0,1,72-79.59v-32C286,244.54,240,292.94,240,352a111,111,0,0,0,11.38,48.86l27.75-16A79.41,79.41,0,0,1,272,352Z"/><path class="cls-1" d="M288,352a64,64,0,1,0,64-64A64.07,64.07,0,0,0,288,352Zm64-48a48,48,0,1,1-48,48A48.05,48.05,0,0,1,352,304Z"/><path class="cls-1" d="M352,432a79.85,79.85,0,0,1-64.84-33.33L259.3,414.76a111.88,111.88,0,0,0,185.4,0l-27.86-16.09A79.85,79.85,0,0,1,352,432Z"/><circle class="cls-1" cx="200" cy="168" r="8"/><circle class="cls-1" cx="352" cy="352" r="32"/></g></g></svg>