<svg xmlns="http://www.w3.org/2000/svg" viewBox="0 0 412.96 512"><defs><style>.cls-1{fill:#fff;}</style></defs><g id="Layer_2" data-name="Layer 2"><g id="Layer_3" data-name="Layer 3"><rect class="cls-1" x="350.88" y="301.34" width="38.25" height="169.46"/><rect class="cls-1" x="23.83" y="301.34" width="38.25" height="169.46"/><path class="cls-1" d="M259.9,113.4h0a43.15,43.15,0,0,1-26.4,39.77l-.25.11-.31.12a41.41,41.41,0,0,1-4.39,1.53h0c-.68.19-1.37.37-2.06.53l-1.06.23c-.7.14-1.41.27-2.12.38l-1.08.15c-.72.09-1.44.17-2.17.22-1.1.09-2.2.13-3.32.13h-20.5a43.17,43.17,0,0,1-43.17-43.17H259.9Z"/><rect class="cls-1" x="23.83" y="113.4" width="38.25" height="64.77"/><rect class="cls-1" x="350.88" y="113.4" width="38.25" height="64.77"/><path class="cls-1" d="M411,15.05V98.36a15,15,0,0,1-15,15H18.09A15,15,0,0,1,3,98.36V15.06c0-.26,0-.52,0-.77s0-.52.06-.78.05-.43.08-.65l0-.18c0-.22.07-.44.12-.65s.08-.41.13-.61.15-.56.24-.83.15-.47.23-.7.24-.62.38-.92a7.09,7.09,0,0,1,.32-.69s.05-.09.07-.13c.15-.3.32-.6.5-.89A14,14,0,0,1,6.56,5.38a3.33,3.33,0,0,1,.25-.28c.2-.23.41-.46.63-.68s.45-.44.68-.63l.32-.28a15.06,15.06,0,0,1,1.36-1l.36-.22A14.21,14.21,0,0,1,12.69,1c.18-.07.36-.14.54-.19.36-.13.72-.24,1.1-.34s1-.22,1.47-.3l.75-.09L17.3,0l.79,0H131.36V27.17a13.45,13.45,0,0,0,13.45,13.44H268.16A13.44,13.44,0,0,0,281.6,27.17V0H395.91A15,15,0,0,1,411,15.05Z"/><path class="cls-1" d="M281.6,0V27.17a13.44,13.44,0,0,1-13.44,13.44H144.81a13.45,13.45,0,0,1-13.45-13.44V0Z"/><path class="cls-1" d="M206.48,222.79a7.72,7.72,0,0,1-7.73-7.72v-20a7.73,7.73,0,0,1,15.46,0v20A7.72,7.72,0,0,1,206.48,222.79Z"/><path class="cls-1" d="M149.24,204.8a7.72,7.72,0,0,1-6.38-12.08l11.28-16.52a7.73,7.73,0,0,1,12.76,8.72l-11.27,16.51A7.74,7.74,0,0,1,149.24,204.8Z"/><path class="cls-1" d="M263.72,204.8a7.7,7.7,0,0,1-6.38-3.37l-11.28-16.51a7.73,7.73,0,1,1,12.76-8.72l11.28,16.52a7.72,7.72,0,0,1-6.38,12.08Z"/><path class="cls-1" d="M85.91,482.85v24.62A4.53,4.53,0,0,1,81.38,512H4.53A4.53,4.53,0,0,1,0,507.47V482.85A12.06,12.06,0,0,1,12.05,470.8H73.87A12,12,0,0,1,85.91,482.85Z"/><rect class="cls-1" x="23.83" y="219.22" width="38.25" height="41.06"/><rect class="cls-1" x="23.83" y="260.28" width="38.25" height="41.06"/><rect class="cls-1" x="23.83" y="178.17" width="38.25" height="41.05"/><path class="cls-1" d="M413,482.85v24.41a4.74,4.74,0,0,1-4.74,4.74H331.79a4.74,4.74,0,0,1-4.74-4.74V482.85A12.05,12.05,0,0,1,339.1,470.8h61.81A12.05,12.05,0,0,1,413,482.85Z"/><rect class="cls-1" x="350.88" y="219.22" width="38.25" height="41.06"/><rect class="cls-1" x="350.88" y="260.28" width="38.25" height="41.06"/><rect class="cls-1" x="350.88" y="178.17" width="38.25" height="41.05"/></g></g></svg>