<svg xmlns="http://www.w3.org/2000/svg" viewBox="0 0 512 385.8"><defs><style>.cls-1{fill:#fff;}</style></defs><g id="Layer_2" data-name="Layer 2"><g id="Layer_3" data-name="Layer 3"><path class="cls-1" d="M0,90.87H43.63V133H0Z"/><path class="cls-1" d="M145,133H52V90.87h85.1A227.41,227.41,0,0,0,145,133Z"/><path class="cls-1" d="M167.37,183.57h-63.3V141.43h43.56a201.75,201.75,0,0,0,13.2,31c2,3.77,4.2,7.53,6.54,11.17Z"/><path class="cls-1" d="M95.7,141.43v42.14H0V141.43H95.7Z"/><path class="cls-1" d="M0,192H43.63v42.16H0Z"/><path class="cls-1" d="M147.73,192v42.16H52V192h95.7Z"/><path class="cls-1" d="M215.9,234.13H156.13V192H173a174,174,0,0,0,26.8,29.7A168.28,168.28,0,0,0,215.9,234.13Z"/><path class="cls-1" d="M199.77,242.53V284.7h-95.7V242.53h95.7Z"/><path class="cls-1" d="M95.7,242.53V284.7H0V242.53H95.7Z"/><path class="cls-1" d="M0,293.07H43.63v42.16H0Z"/><path class="cls-1" d="M147.73,293.07v42.16H52V293.07h95.7Z"/><path class="cls-1" d="M95.7,343.63V385.8H0V343.63H95.7Z"/><path class="cls-1" d="M199.77,343.63V385.8h-95.7V343.63h95.7Z"/><path class="cls-1" d="M251.8,293.07v42.16H156.13V293.07H251.8Z"/><path class="cls-1" d="M303.83,343.63V385.8H208.17V343.63h95.66Z"/><path class="cls-1" d="M407.93,343.63V385.8h-95.7V343.63h95.7Z"/><path class="cls-1" d="M512,343.63V385.8H416.3V343.63H512Z"/><path class="cls-1" d="M468.37,293.07H512v42.16H468.37Z"/><path class="cls-1" d="M460,293.07v42.16h-95.7V293.07H460Z"/><path class="cls-1" d="M355.87,293.07v42.16H260.2V293.07h95.67Z"/><path class="cls-1" d="M303.83,242.53V284.7H208.17V242.53H229.9a140.13,140.13,0,0,0,24.67,10.17,4.89,4.89,0,0,0,2.86,0,134.31,134.31,0,0,0,24.67-10.17Z"/><path class="cls-1" d="M407.93,242.53V284.7h-95.7V242.53h95.7Z"/><path class="cls-1" d="M355.87,192v42.16H296.1a161.1,161.1,0,0,0,16.1-12.46A174,174,0,0,0,339,192Z"/><path class="cls-1" d="M512,242.53V284.7H416.3V242.53H512Z"/><path class="cls-1" d="M468.37,192H512v42.16H468.37Z"/><path class="cls-1" d="M460,192v42.16h-95.7V192H460Z"/><path class="cls-1" d="M407.93,141.43v42.14H344.67c2.3-3.67,4.5-7.4,6.5-11.2a201.75,201.75,0,0,0,13.2-31Z"/><path class="cls-1" d="M512,141.43v42.14H416.3V141.43H512Z"/><path class="cls-1" d="M468.37,90.87H512V133H468.37Z"/><path class="cls-1" d="M460,90.87V133H367a227.41,227.41,0,0,0,7.9-42.16Z"/><path class="cls-1" d="M339.33,76.9c-.9,27.7-8.06,55.43-20.3,78.4-14.46,27.2-37.4,48.73-63,59.33-25.67-10.56-48.57-32.13-63-59.33-12.24-23-19.4-50.7-20.3-78.4C194.8,71,226,59.3,256,36.67,286,59.3,317.2,71,339.33,76.9Zm-39.43,28A4.19,4.19,0,0,0,294,99L242.9,150,223,130.13a4.2,4.2,0,0,0-5.93,5.94l22.83,22.83a4.2,4.2,0,0,0,5.94,0Z"/><path class="cls-1" d="M366.73,54.2c3.17,39.23-5.13,80.7-23,114.27C324.3,205,291.53,233.33,256,244.37c-29.83-9.27-57.67-30.67-77.33-58.9a1.51,1.51,0,0,1-.1-.17,165,165,0,0,1-10.27-16.83c-17.87-33.57-26.17-75-23-114.27A200.33,200.33,0,0,0,181.37,45c20.06-7,49-20.47,74.66-45,25.67,24.53,54.6,38,74.67,45a202.88,202.88,0,0,0,36,9.2ZM347.8,73.73a4.19,4.19,0,0,0-3.17-4.13C322.53,64,289.7,52.27,258.57,28a4.28,4.28,0,0,0-5.17,0c-31.13,24.2-64,36-86.07,41.57a4.17,4.17,0,0,0-3.16,4.13c.46,30.1,8,60.47,21.36,85.5,15.7,29.5,40.8,52.74,68.94,63.8a4.05,4.05,0,0,0,3.06,0c28.1-11.06,53.24-34.33,68.94-63.8C339.77,134.2,347.37,103.83,347.8,73.73Z"/></g></g></svg>