<svg xmlns="http://www.w3.org/2000/svg" viewBox="0 0 495.6 405.58"><defs><style>.cls-1{fill:#fff;}</style></defs><g id="Layer_2" data-name="Layer 2"><g id="Layer_1-2" data-name="Layer 1"><path class="cls-1" d="M305.33,238.67a99.32,99.32,0,0,1,2.32,21.52c0,41.24-24.68,75.12-55.82,77.83V238.67Z"/><path class="cls-1" d="M243.67,238.67V338c-26.23-2.29-47.91-26.72-54.08-59v0a4.29,4.29,0,0,0-.25-1.45,101.3,101.3,0,0,1-1.49-17.33,99.86,99.86,0,0,1,1.32-16.32,3.78,3.78,0,0,0,.29-1.52v-.16c.23-1.2.46-2.36.71-3.52Z"/><path class="cls-1" d="M303.14,230.57H192.34c9-28.36,30.42-48.36,55.4-48.36S294.17,202.21,303.14,230.57Z"/><path class="cls-1" d="M495.6,80.25V405.58H0V80.25ZM360.44,229a4.06,4.06,0,0,0-5.74-5.74l-15.07,15.07H313.56a93.48,93.48,0,0,0-17.39-38.63,69.12,69.12,0,0,0-22.68-19.26l10.58-35.69a4.06,4.06,0,0,0-7.78-2.29L266,177.24a55.15,55.15,0,0,0-36.46,0l-10.29-34.79a4.07,4.07,0,0,0-7.81,2.29L222,180.43a68.82,68.82,0,0,0-22.68,19.26A93.18,93.18,0,0,0,182,238.32H156L140.9,223.25a4.06,4.06,0,0,0-5.74,5.74l16.26,16.23a4.09,4.09,0,0,0,2.88,1.19h26.29a108.48,108.48,0,0,0-.87,13.78,105.82,105.82,0,0,0,1,14.75H154.46a4.09,4.09,0,0,0-2.88,1.19l-16.22,16.26a4.06,4.06,0,1,0,5.74,5.75l15.07-15.07h26a97.68,97.68,0,0,0,11,28.52H169.4a4.06,4.06,0,0,0-2.88,1.2L150.29,329a4.07,4.07,0,0,0,5.75,5.75l15-15.07h27.46l.78,1c12.87,16.52,30.07,25.59,48.43,25.59s35.55-9.1,48.43-25.59c.26-.32.51-.68.77-1h27.59l15.07,15.07a4.06,4.06,0,1,0,5.74-5.75l-16.26-16.22a4.05,4.05,0,0,0-2.87-1.2H302.36a95.48,95.48,0,0,0,11-28.52h26.14l15.07,15.07a4.06,4.06,0,0,0,5.74-5.75l-16.23-16.26a4.07,4.07,0,0,0-2.87-1.19H314.79a112,112,0,0,0,1-14.75,106.66,106.66,0,0,0-.88-13.78h26.43a4.07,4.07,0,0,0,2.87-1.19Z"/><path class="cls-1" d="M495.6,0V72.11H0V0ZM164.52,36.07A11.93,11.93,0,1,0,161,44.43a11.61,11.61,0,0,0,3.51-8.36Zm-46.72,0a11.93,11.93,0,1,0-3.51,8.36,11.61,11.61,0,0,0,3.51-8.36Zm-46.72,0a12,12,0,1,0-3.52,8.36,11.58,11.58,0,0,0,3.52-8.36Z"/></g></g></svg>