<svg xmlns="http://www.w3.org/2000/svg" viewBox="0 0 328.13 464"><defs><style>.cls-1{fill:#fff;}</style></defs><g id="Layer_2" data-name="Layer 2"><g id="Layer_3" data-name="Layer 3"><path class="cls-1" d="M112,48h16V64H112Z"/><path class="cls-1" d="M112,176h16v16H112Z"/><path class="cls-1" d="M48,112H64v16H48Z"/><path class="cls-1" d="M48,48H64V64H48Z"/><path class="cls-1" d="M176,112h16v16H176Z"/><path class="cls-1" d="M96,272h48v16H96Z"/><path class="cls-1" d="M176,176h16v16H176Z"/><path class="cls-1" d="M176,48h16V64H176Z"/><path class="cls-1" d="M48,176H64v16H48Z"/><path class="cls-1" d="M112,112h16v16H112Z"/><circle class="cls-1" cx="120" cy="376" r="8"/><path class="cls-1" d="M163.17,411.63a56,56,0,1,1,0-71.26A44.65,44.65,0,0,1,183,336c6.28,0,30.27,2.5,57.05,5.51V24A24,24,0,0,0,216,0H24A24,24,0,0,0,0,24V352A112.12,112.12,0,0,0,112,464h16a112,112,0,0,0,94.27-51.55C203.2,414.51,187.8,416,183,416A44.65,44.65,0,0,1,163.17,411.63ZM160,288a16,16,0,0,1-16,16H96a16,16,0,0,1-16-16V272a16,16,0,0,1,16-16h48a16,16,0,0,1,16,16Zm32,0H176V272h16Zm32,0H208V272h16ZM160,48a16,16,0,0,1,16-16h16a16,16,0,0,1,16,16V64a16,16,0,0,1-16,16H176a16,16,0,0,1-16-16Zm0,64a16,16,0,0,1,16-16h16a16,16,0,0,1,16,16v16a16,16,0,0,1-16,16H176a16,16,0,0,1-16-16Zm0,64a16,16,0,0,1,16-16h16a16,16,0,0,1,16,16v16a16,16,0,0,1-16,16H176a16,16,0,0,1-16-16ZM96,48a16,16,0,0,1,16-16h16a16,16,0,0,1,16,16V64a16,16,0,0,1-16,16H112A16,16,0,0,1,96,64Zm0,64a16,16,0,0,1,16-16h16a16,16,0,0,1,16,16v16a16,16,0,0,1-16,16H112a16,16,0,0,1-16-16Zm0,64a16,16,0,0,1,16-16h16a16,16,0,0,1,16,16v16a16,16,0,0,1-16,16H112a16,16,0,0,1-16-16ZM32,48A16,16,0,0,1,48,32H64A16,16,0,0,1,80,48V64A16,16,0,0,1,64,80H48A16,16,0,0,1,32,64Zm0,64A16,16,0,0,1,48,96H64a16,16,0,0,1,16,16v16a16,16,0,0,1-16,16H48a16,16,0,0,1-16-16Zm0,64a16,16,0,0,1,16-16H64a16,16,0,0,1,16,16v16a16,16,0,0,1-16,16H48a16,16,0,0,1-16-16Zm0,112H16V272H32ZM16,240V224H224v16Zm32,32H64v16H48Z"/><path class="cls-1" d="M171.55,354.14a55.92,55.92,0,0,1,0,43.72A29.58,29.58,0,0,0,183,400c9.47,0,69.84-7,113.05-12.18V364.17C252.75,359,192.42,352,183,352A29.58,29.58,0,0,0,171.55,354.14Z"/><path class="cls-1" d="M328,368c0,.37-.58,0-.88-.05L312,366.1v19.8l15-1.84a2,2,0,0,0,1.11-.68Z"/><path class="cls-1" d="M120,336a40,40,0,1,0,40,40A40,40,0,0,0,120,336Zm0,64a24,24,0,1,1,24-24A24,24,0,0,1,120,400Z"/></g></g></svg>