<svg xmlns="http://www.w3.org/2000/svg" viewBox="0 0 444.07 512"><defs><style>.cls-1{fill:#fff;}</style></defs><g id="Layer_2" data-name="Layer 2"><g id="Layer_3" data-name="Layer 3"><g id="Icon-4"><path class="cls-1" d="M386,164V206.5H348.8V164a126.77,126.77,0,1,0-253.53,0V206.5H58.07V164a164,164,0,0,1,315-63.84A162.75,162.75,0,0,1,386,164Z"/><path class="cls-1" d="M265.6,332.7a43.32,43.32,0,0,1-20.93,37.23,4.25,4.25,0,0,0-2,3.6v64.24H201.4V373.53a4.27,4.27,0,0,0-2-3.6,43.57,43.57,0,1,1,66.2-37.23Z"/><path class="cls-1" d="M444.07,214.87V512H0V214.87H444.07ZM267.13,358.53A52,52,0,1,0,193,375.8v66.13a4.18,4.18,0,0,0,4.2,4.2h49.67a4.18,4.18,0,0,0,4.2-4.2V375.8a52.37,52.37,0,0,0,16.06-17.27Z"/></g></g></g></svg>