<svg xmlns="http://www.w3.org/2000/svg" viewBox="0 0 134.61 277.11"><defs><style>.cls-1{fill:none;stroke:#fff;stroke-miterlimit:10;stroke-width:4px;}</style></defs><g id="Layer_2" data-name="Layer 2"><g id="Layer_1-2" data-name="Layer 1"><g id="_3-Alerts" data-name="3-Alerts"><path class="cls-1" d="M2.63,217.91a139.36,139.36,0,0,1,3.9-31.6h31.7c-.1,16.1-.9,35.9,7.9,48.4,10.5,15.5,39.1,12.1,43.2-7.1,3-15.4,2.5-43.6.2-59.1-4-22.4-25.8-20.7-43.8-20.3v-29.1c24.7,1.5,41.3-.9,41.3-30.6-.7-12.4,2.8-41.4-5.8-50-8.8-10.6-30-9.2-36.8,4.4-7,9.6-7.2,33.1-6.8,48H6.23C-7.37,46,11.83,1.61,64,2c26.8-.3,52.4,8,60.9,34.2,4.3,11.1,3.7,29,3.7,41.7.6,23.6-12.1,45.1-33,54.5v1.3c25.3,7.4,37.9,30.8,36.9,57.2.2,15.1.5,37-5.3,49-9.8,25.5-35.7,35.5-61.4,35.2C27.23,275.11,2.63,256.31,2.63,217.91Z"/></g></g></g></svg>