<svg xmlns="http://www.w3.org/2000/svg" viewBox="0 0 396.46 202.26"><defs><style>.cls-1{fill:#fff;}.cls-2{fill:none;}</style></defs><g id="Layer_2" data-name="Layer 2"><g id="Layer_3" data-name="Layer 3"><path class="cls-1" d="M374.44,2a8,8,0,0,0-1.44.14A7.1,7.1,0,0,1,374.44,2Z"/><polygon class="cls-1" points="348.09 57.73 348.06 57.75 347.37 57.88 348.06 57.74 348.09 57.73"/><path class="cls-1" d="M396.18,44.13c0,.13-.08.26-.13.39a6.85,6.85,0,0,1-1.94,2.84,6.12,6.12,0,0,1-.7.53c-.24.16-.5.3-.76.44a5.28,5.28,0,0,1-.69.29,6.79,6.79,0,0,1-1,.29l-35.16,6.82h0l-.69.14-43.6,8.47-43.6,8.47-43.6,8.47-43.6,8.47-43.6,8.47-28,5.64L108,53.1l24.83-4.82,43.6-8.47,43.6-8.47,43.6-8.47,43.6-8.47,43.61-8.47,20.61-4,9.2-1.79A8,8,0,0,1,382.12,0a7.71,7.71,0,0,1,1.28.11c.2,0,.41.08.61.13a7.25,7.25,0,0,1,2.17.94,3.58,3.58,0,0,1,.45.31,3.44,3.44,0,0,1,.36.28,2.51,2.51,0,0,1,.35.31,2.54,2.54,0,0,1,.29.28,5.13,5.13,0,0,1,.56.66,2.83,2.83,0,0,1,.2.28,3.73,3.73,0,0,1,.25.39c.1.17.2.35.29.53a4.83,4.83,0,0,1,.23.52,3.41,3.41,0,0,1,.18.48,2.13,2.13,0,0,1,.08.27,1.21,1.21,0,0,1,.05.18l0,0c.6,3,4.44,22.79,6.09,31.3l.27,1.4c.14.71.25,1.28.33,1.7,0,.19.07.34.09.47l0,.13,0,.18c0,.08,0,.15,0,.23a3,3,0,0,1,.06.42A6.74,6.74,0,0,1,396.18,44.13Z"/><path class="cls-1" d="M388.69,43.13c0-.08,0-.15,0-.23l0-.18c0,.12,0,.18,0,.18A1.6,1.6,0,0,1,388.69,43.13Z"/><path class="cls-1" d="M75.5,17.21H39.77A24.85,24.85,0,0,0,14.92,42.06V166.57h85.43V42.06A24.85,24.85,0,0,0,75.5,17.21Zm-31.07,126a8.08,8.08,0,1,1,8.07-8.08A8.08,8.08,0,0,1,44.43,143.21Zm12.12-43.4c-.21,0-.43,0-.64,0a5,5,0,0,1-.56-.06A19.25,19.25,0,0,1,51.79,99l-.85-.28-.07,0q-.46-.16-.9-.36c-.3-.12-.59-.26-.88-.4a18.67,18.67,0,0,1-1.76-1c-.25-.15-.49-.31-.73-.47s-.5-.34-.74-.52-.53-.41-.79-.62-.4-.33-.59-.51l-.38-.35a6.26,6.26,0,0,1-.52-.51q-.53-.53-1-1.08c-.16-.18-.31-.37-.46-.56s-.3-.39-.45-.59c-.29-.39-.56-.8-.82-1.21-.13-.21-.26-.42-.38-.63-.24-.42-.46-.84-.67-1.27s-.42-.92-.61-1.4a19.83,19.83,0,0,1,25-25.92l.06,0,.58.22c.2.07.39.15.59.24a9,9,0,0,1,.84.38,18,18,0,0,1,2.49,1.43c.27.18.53.36.78.55s.59.45.87.7.35.29.52.44.36.33.54.51.23.22.34.34A19.54,19.54,0,0,1,75,70.33c.1.18.2.36.29.54s.19.37.28.56.28.58.4.88l0,.07c.12.27.22.55.33.83s.24.7.35,1.07c.06.19.12.39.17.6.11.38.2.78.29,1.19s.11.62.16.93.09.61.12.91a.88.88,0,0,0,0,.16c0,.3,0,.6.06.9s0,.7,0,1A19.83,19.83,0,0,1,57.68,99.85C57.3,99.85,56.92,99.84,56.55,99.81Zm14.29,43.4a8.08,8.08,0,1,1,8.08-8.08A8.07,8.07,0,0,1,70.84,143.21Z"/><path class="cls-2" d="M77.51,80A19.83,19.83,0,0,1,57.68,99.85c-.38,0-.76,0-1.13,0-.21,0-.43,0-.64,0a5,5,0,0,1-.56-.06A19.25,19.25,0,0,1,51.79,99l-.85-.28-.07,0q-.46-.16-.9-.36c-.3-.12-.59-.26-.88-.4a18.67,18.67,0,0,1-1.76-1c-.25-.15-.49-.31-.73-.47s-.5-.34-.74-.52-.53-.41-.79-.62-.4-.33-.59-.51l-.38-.35c-.18-.16-.35-.33-.52-.51q-.53-.53-1-1.08c-.16-.18-.31-.37-.46-.56s-.3-.39-.45-.59c-.29-.39-.56-.8-.82-1.21-.13-.21-.26-.42-.38-.63-.24-.42-.46-.84-.67-1.27s-.42-.92-.61-1.4a19.83,19.83,0,0,1,25-25.92l.06,0,.58.22c.2.07.39.15.59.24a9,9,0,0,1,.84.38,18,18,0,0,1,2.49,1.43c.27.18.53.36.78.55s.59.45.87.7.35.29.52.44.36.33.54.51.23.22.34.34A19.54,19.54,0,0,1,75,70.33c.1.18.2.36.29.54s.19.37.28.56.28.58.4.88l0,.07c.12.27.22.55.33.83s.24.7.35,1.07c.06.19.12.39.17.6.11.38.2.78.29,1.19s.11.62.16.93.09.61.12.91a.88.88,0,0,0,0,.16c0,.3,0,.6.06.9S77.51,79.67,77.51,80Z"/><path class="cls-1" d="M115.27,171.89V197a5.32,5.32,0,0,1-5.32,5.31H5.32A5.32,5.32,0,0,1,0,197V171.89a5.32,5.32,0,0,1,5.32-5.32H110A5.32,5.32,0,0,1,115.27,171.89Z"/><path class="cls-2" d="M52.5,135.13a8.08,8.08,0,1,1-8.07-8.08A8.07,8.07,0,0,1,52.5,135.13Z"/><path class="cls-2" d="M78.92,135.13a8.08,8.08,0,1,1-8.08-8.08A8.08,8.08,0,0,1,78.92,135.13Z"/></g></g></svg>