<svg xmlns="http://www.w3.org/2000/svg" viewBox="0 0 228.03 455.92"><defs><style>.cls-1{fill:#0a1622;}.cls-2{fill:#fff;}.cls-3{fill:#061019;}</style></defs><g id="Layer_2" data-name="Layer 2"><g id="Layer_2-2" data-name="Layer 2"><path class="cls-1" d="M221.18,370.7H6.85A6.87,6.87,0,0,1,0,363.84V6.85A6.87,6.87,0,0,1,6.85,0H221.18A6.86,6.86,0,0,1,228,6.85v357A6.86,6.86,0,0,1,221.18,370.7ZM6.85,3A3.86,3.86,0,0,0,3,6.85v357a3.86,3.86,0,0,0,3.85,3.86H221.18a3.86,3.86,0,0,0,3.85-3.86V6.85A3.86,3.86,0,0,0,221.18,3Z"/><path class="cls-2" d="M221.18,1.5H6.85A5.36,5.36,0,0,0,1.5,6.86v357a5.36,5.36,0,0,0,5.35,5.36H221.18a5.36,5.36,0,0,0,5.35-5.36V6.86A5.36,5.36,0,0,0,221.18,1.5ZM71.5,322.24H43.15V293.9H71.5Zm0-43H43.15V250.93H71.5Zm0-43H43.15V208H71.5Zm0-43H43.15V165H71.5Zm56.69,128.9H99.84V293.9h28.35Zm0-43H99.84V250.93h28.35Zm0-43H99.84V208h28.35Zm0-43H99.84V165h28.35Zm56.69,128.9H156.54V293.9h28.34Zm0-43H156.54V250.93h28.34Zm0-43H156.54V208h28.34Zm0-43H156.54V165h28.34Zm0-67.9H43.15v-85H184.88Z"/><path class="cls-2" d="M27.31,370.7H208.47v70.64a14.58,14.58,0,0,1-14.58,14.58h-152a14.57,14.57,0,0,1-14.57-14.58Z"/><rect class="cls-3" x="165.61" y="370.7" width="7" height="85.22"/><rect class="cls-3" x="127.29" y="370.7" width="7" height="85.22"/><rect class="cls-3" x="85.48" y="370.7" width="7" height="64.42"/><rect class="cls-3" x="55.74" y="370.7" width="7" height="64.42"/></g></g></svg>