<svg xmlns="http://www.w3.org/2000/svg" viewBox="0 0 1000 1000"><defs><style>.cls-1{fill:#17253f;}.cls-2{opacity:0.2;}.cls-3{fill:#0e202d;}.cls-4{fill:#5388ff;}.cls-5{fill:#2d56b3;}.cls-6{fill:#79a2ff;}.cls-7{fill:#407bff;}.cls-8{fill:#fff;}.cls-8,.cls-9{opacity:0.8;isolation:isolate;}.cls-11,.cls-9{fill:none;stroke-miterlimit:10;}.cls-9{stroke:#fff;}.cls-10{fill:#d9e5ff;}.cls-11{stroke:#ff6559;stroke-width:15px;}</style></defs><g id="Background"><rect class="cls-1" x="0.5" y="0.5" width="1000" height="1000"/></g><g id="background-cloud"><g id="freepik--background-simple--inject-66" class="cls-2"><path class="cls-3" d="M437.9,296.31C371,302.94,297,269.66,237.1,313.48c-56.25,41.25-61.85,123-39.12,181.45,55.45,142.38,241.67,113.47,358.3,69.72,107.06-40.15,262-169.12,194.55-301-25.69-50.24-88.94-84.79-145.5-76.13C527.23,199.41,518.57,288.32,437.9,296.31Z"/></g></g><g id="Shadow-ground"><g id="freepik--Shadow--inject-66" class="cls-2"><ellipse class="cls-3" cx="488.13" cy="721.79" rx="302.54" ry="17.66"/></g></g><g id="Card-Back"><g id="Card-Back-2" data-name="Card-Back"><rect class="cls-4" x="518.8" y="390" width="380" height="220" rx="20"/><rect class="cls-5" x="518.8" y="439.6" width="380" height="40"/><rect class="cls-6" x="518.8" y="479.6" width="380" height="80"/></g></g><g id="Card-Front"><g id="Card-Front-2" data-name="Card-Front"><rect class="cls-7" x="107.9" y="390" width="380" height="220" rx="20"/><rect class="cls-6" x="107.9" y="479.6" width="380" height="80"/><rect class="cls-8" x="377.9" y="427.85" width="80" height="13"/><rect class="cls-8" x="129.4" y="578.55" width="45" height="13"/><rect class="cls-8" x="412.9" y="577.05" width="45" height="5"/><rect class="cls-8" x="377.9" y="588.05" width="80" height="5"/><rect class="cls-8" x="137.9" y="524.1" width="63.52" height="18" rx="9"/><rect class="cls-8" x="223.39" y="524.1" width="63.52" height="18" rx="9"/><rect class="cls-8" x="308.89" y="524.1" width="63.52" height="18" rx="9"/><rect class="cls-8" x="394.38" y="524.1" width="63.52" height="18" rx="9"/><path class="cls-9" d="M191.9,413.79a20.49,20.49,0,0,0-19.34,27.26h0a20.47,20.47,0,1,0,19.34-27.26Z"/><path class="cls-10" d="M139.11,441.39a22.5,22.5,0,1,0,0-.07Z"/><rect class="cls-5" x="407.9" y="471.1" width="50" height="35" rx="5"/></g></g><g id="No"><g id="NO-2" data-name="NO"><line class="cls-11" x1="288.49" y1="287.5" x2="712.83" y2="711.84"/><circle class="cls-11" cx="500" cy="500" r="300"/></g></g></svg>